<?xml version="1.0" standalone="no"?>
<!DOCTYPE svg PUBLIC "-//W3C//DTD SVG 20010904//EN"
 "http://www.w3.org/TR/2001/REC-SVG-20010904/DTD/svg10.dtd">
<svg version="1.0" xmlns="http://www.w3.org/2000/svg"
 width="512.000000pt" height="512.000000pt" viewBox="0 0 512.000000 512.000000"
 preserveAspectRatio="xMidYMid meet">

<g transform="translate(0.000000,512.000000) scale(0.100000,-0.100000)"
fill="#000000" stroke="none">
<path d="M0 3920 l0 -1200 75 -150 75 -150 0 -425 0 -425 -75 -150 -75 -150 0
-635 0 -635 1280 0 1280 0 133 66 132 66 133 -66 132 -66 1015 0 1015 0 0
1015 0 1015 -66 133 -66 132 66 133 66 132 0 1280 0 1280 -315 0 -315 0 -135
-67 -135 -68 -135 68 -135 67 -621 0 -622 0 -142 -75 -143 -75 -426 0 -426 0
-150 75 -150 75 -635 0 -635 0 0 -1200z m2011 -306 c442 -334 1119 -843 1504
-1132 385 -289 701 -526 703 -527 3 -3 -133 -973 -144 -1028 l-6 -27 -301 1
-302 0 -190 225 -190 224 -41 159 c-23 87 -44 163 -47 168 -4 6 -74 39 -157
73 -148 63 -150 64 -207 131 -48 57 -1674 1966 -1722 2022 -14 17 -4 28 134
167 83 83 153 150 156 150 4 0 368 -273 810 -606z m1987 383 l222 -222 -2
-453 -3 -452 -675 675 -675 675 455 0 455 0 223 -223z m-2200 -3095 l-453 -2
-222 222 -223 223 0 455 0 455 675 -675 675 -675 -452 -3z"/>
</g>
</svg>
